<mxfile host="app.diagrams.net" agent="Mozilla/5.0 (Windows NT 10.0; Win64; x64) AppleWebKit/537.36 (KHTML, like Gecko) Chrome/129.0.0.0 Safari/537.36 Edg/129.0.0.0" version="24.7.16">
  <diagram name="第 1 页" id="fnNwxjFBs6TvYUvYyMVf">
    <mxGraphModel dx="2444" dy="1061" grid="0" gridSize="10" guides="1" tooltips="1" connect="1" arrows="1" fold="1" page="0" pageScale="1" pageWidth="827" pageHeight="1169" math="0" shadow="0">
      <root>
        <mxCell id="0" />
        <mxCell id="1" parent="0" />
        <mxCell id="LzezTUHe6gOM7yeJa1mP-32" value="" style="rounded=1;whiteSpace=wrap;html=1;fillColor=#CCFFE6;strokeColor=#CCCCCC;" vertex="1" parent="1">
          <mxGeometry x="-77.5" y="-48.5" width="340" height="115" as="geometry" />
        </mxCell>
        <mxCell id="LzezTUHe6gOM7yeJa1mP-34" value="" style="rounded=1;whiteSpace=wrap;html=1;fillColor=#CCFFE6;strokeColor=#CCCCCC;" vertex="1" parent="1">
          <mxGeometry x="-71.5" y="218.5" width="340" height="115" as="geometry" />
        </mxCell>
        <mxCell id="LzezTUHe6gOM7yeJa1mP-35" value="&lt;div&gt;Standard Deviation Network&lt;/div&gt;" style="text;html=1;align=center;verticalAlign=middle;whiteSpace=wrap;rounded=0;" vertex="1" parent="1">
          <mxGeometry x="37" y="225" width="123" height="30" as="geometry" />
        </mxCell>
        <mxCell id="LzezTUHe6gOM7yeJa1mP-33" value="&lt;div&gt;Location Network&lt;/div&gt;" style="text;html=1;align=center;verticalAlign=middle;whiteSpace=wrap;rounded=0;" vertex="1" parent="1">
          <mxGeometry x="31" y="-42" width="123" height="30" as="geometry" />
        </mxCell>
        <mxCell id="LzezTUHe6gOM7yeJa1mP-30" value="" style="rounded=1;whiteSpace=wrap;html=1;fillColor=#CCFFE6;strokeColor=#CCCCCC;" vertex="1" parent="1">
          <mxGeometry x="-463" y="92.5" width="340" height="115" as="geometry" />
        </mxCell>
        <mxCell id="LzezTUHe6gOM7yeJa1mP-20" style="edgeStyle=orthogonalEdgeStyle;rounded=0;orthogonalLoop=1;jettySize=auto;html=1;exitX=1;exitY=0.5;exitDx=0;exitDy=0;entryX=0;entryY=0.5;entryDx=0;entryDy=0;" edge="1" parent="1" source="LzezTUHe6gOM7yeJa1mP-10" target="LzezTUHe6gOM7yeJa1mP-12">
          <mxGeometry relative="1" as="geometry" />
        </mxCell>
        <mxCell id="LzezTUHe6gOM7yeJa1mP-10" value="" style="ellipse;whiteSpace=wrap;html=1;aspect=fixed;fillColor=#CCCCCC;" vertex="1" parent="1">
          <mxGeometry x="-425" y="110" width="80" height="80" as="geometry" />
        </mxCell>
        <mxCell id="LzezTUHe6gOM7yeJa1mP-19" style="edgeStyle=orthogonalEdgeStyle;rounded=0;orthogonalLoop=1;jettySize=auto;html=1;exitX=1;exitY=0.5;exitDx=0;exitDy=0;entryX=0;entryY=0.5;entryDx=0;entryDy=0;" edge="1" parent="1" source="LzezTUHe6gOM7yeJa1mP-11" target="LzezTUHe6gOM7yeJa1mP-10">
          <mxGeometry relative="1" as="geometry" />
        </mxCell>
        <mxCell id="LzezTUHe6gOM7yeJa1mP-11" value="" style="ellipse;whiteSpace=wrap;html=1;aspect=fixed;fillColor=#FFB570;" vertex="1" parent="1">
          <mxGeometry x="-612" y="110" width="80" height="80" as="geometry" />
        </mxCell>
        <mxCell id="LzezTUHe6gOM7yeJa1mP-23" style="edgeStyle=orthogonalEdgeStyle;rounded=0;orthogonalLoop=1;jettySize=auto;html=1;exitX=0.5;exitY=0;exitDx=0;exitDy=0;entryX=0;entryY=0.5;entryDx=0;entryDy=0;" edge="1" parent="1" source="LzezTUHe6gOM7yeJa1mP-12" target="LzezTUHe6gOM7yeJa1mP-13">
          <mxGeometry relative="1" as="geometry" />
        </mxCell>
        <mxCell id="LzezTUHe6gOM7yeJa1mP-25" style="edgeStyle=orthogonalEdgeStyle;rounded=0;orthogonalLoop=1;jettySize=auto;html=1;exitX=0.5;exitY=1;exitDx=0;exitDy=0;entryX=0;entryY=0.5;entryDx=0;entryDy=0;" edge="1" parent="1" source="LzezTUHe6gOM7yeJa1mP-12" target="LzezTUHe6gOM7yeJa1mP-15">
          <mxGeometry relative="1" as="geometry" />
        </mxCell>
        <mxCell id="LzezTUHe6gOM7yeJa1mP-12" value="" style="ellipse;whiteSpace=wrap;html=1;aspect=fixed;fillColor=#CCCCCC;" vertex="1" parent="1">
          <mxGeometry x="-238" y="110" width="80" height="80" as="geometry" />
        </mxCell>
        <mxCell id="LzezTUHe6gOM7yeJa1mP-24" style="edgeStyle=orthogonalEdgeStyle;rounded=0;orthogonalLoop=1;jettySize=auto;html=1;exitX=1;exitY=0.5;exitDx=0;exitDy=0;entryX=0;entryY=0.5;entryDx=0;entryDy=0;" edge="1" parent="1" source="LzezTUHe6gOM7yeJa1mP-13" target="LzezTUHe6gOM7yeJa1mP-14">
          <mxGeometry relative="1" as="geometry" />
        </mxCell>
        <mxCell id="LzezTUHe6gOM7yeJa1mP-13" value="" style="ellipse;whiteSpace=wrap;html=1;aspect=fixed;fillColor=#99CCFF;" vertex="1" parent="1">
          <mxGeometry x="-29" y="-31" width="80" height="80" as="geometry" />
        </mxCell>
        <mxCell id="LzezTUHe6gOM7yeJa1mP-37" style="edgeStyle=orthogonalEdgeStyle;rounded=0;orthogonalLoop=1;jettySize=auto;html=1;exitX=1;exitY=0.5;exitDx=0;exitDy=0;entryX=0.5;entryY=0;entryDx=0;entryDy=0;" edge="1" parent="1" source="LzezTUHe6gOM7yeJa1mP-14" target="LzezTUHe6gOM7yeJa1mP-36">
          <mxGeometry relative="1" as="geometry" />
        </mxCell>
        <mxCell id="LzezTUHe6gOM7yeJa1mP-14" value="" style="ellipse;whiteSpace=wrap;html=1;aspect=fixed;fillColor=#99CCFF;" vertex="1" parent="1">
          <mxGeometry x="138" y="-31" width="80" height="80" as="geometry" />
        </mxCell>
        <mxCell id="LzezTUHe6gOM7yeJa1mP-26" style="edgeStyle=orthogonalEdgeStyle;rounded=0;orthogonalLoop=1;jettySize=auto;html=1;exitX=1;exitY=0.5;exitDx=0;exitDy=0;entryX=0;entryY=0.5;entryDx=0;entryDy=0;" edge="1" parent="1" source="LzezTUHe6gOM7yeJa1mP-15" target="LzezTUHe6gOM7yeJa1mP-16">
          <mxGeometry relative="1" as="geometry" />
        </mxCell>
        <mxCell id="LzezTUHe6gOM7yeJa1mP-15" value="" style="ellipse;whiteSpace=wrap;html=1;aspect=fixed;fillColor=#FFE599;" vertex="1" parent="1">
          <mxGeometry x="-29" y="236" width="80" height="80" as="geometry" />
        </mxCell>
        <mxCell id="LzezTUHe6gOM7yeJa1mP-38" style="edgeStyle=orthogonalEdgeStyle;rounded=0;orthogonalLoop=1;jettySize=auto;html=1;exitX=1;exitY=0.5;exitDx=0;exitDy=0;entryX=0.5;entryY=1;entryDx=0;entryDy=0;" edge="1" parent="1" source="LzezTUHe6gOM7yeJa1mP-16" target="LzezTUHe6gOM7yeJa1mP-36">
          <mxGeometry relative="1" as="geometry" />
        </mxCell>
        <mxCell id="LzezTUHe6gOM7yeJa1mP-16" value="" style="ellipse;whiteSpace=wrap;html=1;aspect=fixed;fillColor=#FFE599;" vertex="1" parent="1">
          <mxGeometry x="138" y="236" width="80" height="80" as="geometry" />
        </mxCell>
        <mxCell id="LzezTUHe6gOM7yeJa1mP-27" value="Input&lt;div&gt;Layer&lt;/div&gt;" style="text;html=1;align=center;verticalAlign=middle;whiteSpace=wrap;rounded=0;" vertex="1" parent="1">
          <mxGeometry x="-602" y="135" width="60" height="30" as="geometry" />
        </mxCell>
        <mxCell id="LzezTUHe6gOM7yeJa1mP-28" value="&lt;div&gt;Hidden&lt;/div&gt;&lt;div&gt;Layer&lt;/div&gt;" style="text;html=1;align=center;verticalAlign=middle;whiteSpace=wrap;rounded=0;" vertex="1" parent="1">
          <mxGeometry x="-415" y="135" width="60" height="30" as="geometry" />
        </mxCell>
        <mxCell id="LzezTUHe6gOM7yeJa1mP-29" value="&lt;div&gt;Hidden&lt;/div&gt;&lt;div&gt;Layer&lt;/div&gt;" style="text;html=1;align=center;verticalAlign=middle;whiteSpace=wrap;rounded=0;" vertex="1" parent="1">
          <mxGeometry x="-228" y="135" width="60" height="30" as="geometry" />
        </mxCell>
        <mxCell id="LzezTUHe6gOM7yeJa1mP-31" value="&lt;div&gt;Core Network&lt;/div&gt;" style="text;html=1;align=center;verticalAlign=middle;whiteSpace=wrap;rounded=0;" vertex="1" parent="1">
          <mxGeometry x="-351" y="99" width="123" height="30" as="geometry" />
        </mxCell>
        <mxCell id="LzezTUHe6gOM7yeJa1mP-36" value="&lt;font style=&quot;font-size: 14px;&quot;&gt;Output(vector): mean&amp;amp;std&lt;/font&gt;" style="rounded=1;whiteSpace=wrap;html=1;fillColor=#FFCCCC;" vertex="1" parent="1">
          <mxGeometry x="371" y="120" width="161" height="60" as="geometry" />
        </mxCell>
        <mxCell id="LzezTUHe6gOM7yeJa1mP-39" value="&lt;span style=&quot;color: rgb(0, 0, 0); font-family: Helvetica; font-size: 14px; font-style: normal; font-variant-ligatures: normal; font-variant-caps: normal; font-weight: 400; letter-spacing: normal; orphans: 2; text-align: center; text-indent: 0px; text-transform: none; widows: 2; word-spacing: 0px; -webkit-text-stroke-width: 0px; white-space: normal; background-color: rgb(255, 255, 255); text-decoration-thickness: initial; text-decoration-style: initial; text-decoration-color: initial; display: inline !important; float: none;&quot;&gt;Output1: mean prediction&lt;/span&gt;" style="text;whiteSpace=wrap;html=1;" vertex="1" parent="1">
          <mxGeometry x="277" y="-19" width="177" height="39" as="geometry" />
        </mxCell>
        <mxCell id="LzezTUHe6gOM7yeJa1mP-40" value="&lt;span style=&quot;color: rgb(0, 0, 0); font-family: Helvetica; font-size: 14px; font-style: normal; font-variant-ligatures: normal; font-variant-caps: normal; font-weight: 400; letter-spacing: normal; orphans: 2; text-align: center; text-indent: 0px; text-transform: none; widows: 2; word-spacing: 0px; -webkit-text-stroke-width: 0px; white-space: normal; background-color: rgb(255, 255, 255); text-decoration-thickness: initial; text-decoration-style: initial; text-decoration-color: initial; display: inline !important; float: none;&quot;&gt;Output2: std prediction&lt;/span&gt;" style="text;whiteSpace=wrap;html=1;" vertex="1" parent="1">
          <mxGeometry x="287" y="244" width="167" height="39" as="geometry" />
        </mxCell>
        <mxCell id="LzezTUHe6gOM7yeJa1mP-41" value="&lt;div&gt;Mean Prediction Head&lt;/div&gt;" style="text;html=1;align=center;verticalAlign=middle;whiteSpace=wrap;rounded=0;" vertex="1" parent="1">
          <mxGeometry x="-19" y="-6" width="60" height="30" as="geometry" />
        </mxCell>
        <mxCell id="LzezTUHe6gOM7yeJa1mP-42" value="Std Prediction Head" style="text;html=1;align=center;verticalAlign=middle;whiteSpace=wrap;rounded=0;" vertex="1" parent="1">
          <mxGeometry x="-19" y="261" width="60" height="30" as="geometry" />
        </mxCell>
        <mxCell id="LzezTUHe6gOM7yeJa1mP-43" value="&lt;div&gt;Std&lt;/div&gt;&lt;div&gt;Output&lt;/div&gt;" style="text;html=1;align=center;verticalAlign=middle;whiteSpace=wrap;rounded=0;" vertex="1" parent="1">
          <mxGeometry x="148" y="261" width="60" height="30" as="geometry" />
        </mxCell>
        <mxCell id="LzezTUHe6gOM7yeJa1mP-44" value="&lt;div&gt;Mean&lt;/div&gt;&lt;div&gt;Output&lt;/div&gt;" style="text;html=1;align=center;verticalAlign=middle;whiteSpace=wrap;rounded=0;" vertex="1" parent="1">
          <mxGeometry x="148" y="-6" width="60" height="30" as="geometry" />
        </mxCell>
      </root>
    </mxGraphModel>
  </diagram>
</mxfile>
